# xmcd CD database file
#
# Track frame offsets:
#	150
#	43366
#	100001
#	142218
#	160068
#	177037
#	224964
#	227917
#	263807
#	286918
#
# Disc length: 4093 seconds
#
# Revision: 0
# Processed by: cddbd v1.5.1PL0 Copyright (c) Steve Scherf et al.
# Submitted via: CDex 1.51
#
DISCID=9a0ffb0a
DTITLE=Eugene Chadbourne - Any Other Suggestions?
DYEAR=1998
DGENRE=Jazz
TTITLE0=Song is You
TTITLE1=Juke Box Charlie
TTITLE2=Peggy's Blue Skylight
TTITLE3=Boogie on the Ferry
TTITLE4=Porthole
TTITLE5=Conrad Escapes from Straight Jacket
TTITLE6=Plunger
TTITLE7=In Walked Bud
TTITLE8=Rollin' Stone
TTITLE9=Documentary
EXTD=YEAR: 1998
EXTT0=
EXTT1=
EXTT2=
EXTT3=
EXTT4=
EXTT5=
EXTT6=
EXTT7=
EXTT8=
EXTT9=
PLAYORDER=
